ffmpeg started on 2025-06-15 at 19:43:55
Report written to "D:\Convert\FFMetrics\reports\psnr_report-6.txt"
Log level: 32
Command line:
ffmpeg -hide_banner -nostdin -i "G:\\\xc0\xed\xe8\xec\xe5\\[\xd2\xee\xef]\\\xd1\xea\xe0\xe7\xe0\xed\xe8\xe5 \xee\xe1 \xee\xe1\xf0\xf3\xf7\xe0\xeb\xfc\xed\xfb\xf5 \xea\xee\xeb\xfc\xf6\xe0\xf5\\[DC] Kekkon Yubiwa Monogatari - 04_Telegram_HEVC.mkv" -i "G:\\\xc0\xed\xe8\xec\xe5\\[\xd2\xee\xef]\\\xd1\xea\xe0\xe7\xe0\xed\xe8\xe5 \xee\xe1 \xee\xe1\xf0\xf3\xf7\xe0\xeb\xfc\xed\xfb\xf5 \xea\xee\xeb\xfc\xf6\xe0\xf5\\[DC] Kekkon Yubiwa Monogatari - 04_Telegram.mp4" -lavfi "[0:v]settb=AVTB,setpts=PTS-STARTPTS,format=pix_fmts=yuv420p10,fps=24000/1001,scale=1920:1080:flags=bicubic[main];[1:v]settb=AVTB,setpts=PTS-STARTPTS,format=pix_fmts=yuv420p,fps=24000/1001,scale=1920:1080:flags=bicubic[ref];[main][ref]psnr=eof_action=endall:stats_file='D\\:/Convert/FFMetrics/logs/psnr_logfile-6.txt'" -f null -
Input #0, matroska,webm, from 'G:\Аниме\[Топ]\Сказание об обручальных кольцах\[DC] Kekkon Yubiwa Monogatari - 04_Telegram_HEVC.mkv':
  Metadata:
    COMPATIBLE_BRANDS: isomiso2avc1mp41
    MAJOR_BRAND     : isom
    MINOR_VERSION   : 512
    ENCODER         : Lavf61.7.100
  Duration: 00:23:47.54, start: -0.021000, bitrate: 1309 kb/s
  Stream #0:0: Video: hevc (Main 10), yuv420p10le(tv, bt709, progressive), 1920x1080 [SAR 1:1 DAR 16:9], 23.98 fps, 23.98 tbr, 1k tbn (default)
      Metadata:
        HANDLER_NAME    : VideoHandler
        VENDOR_ID       : [0][0][0][0]
        ENCODER         : Lavc61.19.100 libx265
        BPS             : 1112278
        DURATION        : 00:23:46.466708333
        NUMBER_OF_FRAMES: 34201
        NUMBER_OF_BYTES : 198328392
        _STATISTICS_WRITING_APP: mkvpropedit v66.0.0 ('Josie') 64-bit
        _STATISTICS_WRITING_DATE_UTC: 2025-06-15 14:27:45
        _STATISTICS_TAGS: BPS DURATION NUMBER_OF_FRAMES NUMBER_OF_BYTES
  Stream #0:1: Audio: aac (LC), 48000 Hz, stereo, fltp (default)
      Metadata:
        HANDLER_NAME    : SoundHandler
        VENDOR_ID       : [0][0][0][0]
        ENCODER         : Lavc61.19.100 aac
        BPS             : 193813
        DURATION        : 00:23:47.541000000
        NUMBER_OF_FRAMES: 66917
        NUMBER_OF_BYTES : 34584657
        _STATISTICS_WRITING_APP: mkvpropedit v66.0.0 ('Josie') 64-bit
        _STATISTICS_WRITING_DATE_UTC: 2025-06-15 14:27:45
        _STATISTICS_TAGS: BPS DURATION NUMBER_OF_FRAMES NUMBER_OF_BYTES
Input #1, mov,mp4,m4a,3gp,3g2,mj2, from 'G:\Аниме\[Топ]\Сказание об обручальных кольцах\[DC] Kekkon Yubiwa Monogatari - 04_Telegram.mp4':
  Metadata:
    major_brand     : isom
    minor_version   : 512
    compatible_brands: isomiso2avc1mp41
    encoder         : Lavf60.16.100
  Duration: 00:23:47.51, start: 0.000000, bitrate: 3879 kb/s
  Stream #1:0[0x1](und): Video: h264 (High) (avc1 / 0x31637661), yuv420p(tv, bt709, progressive), 1920x1080 [SAR 1:1 DAR 16:9], 3734 kb/s, 23.98 fps, 23.98 tbr, 24k tbn (default)
      Metadata:
        handler_name    : VideoHandler
        vendor_id       : [0][0][0][0]
        encoder         : Lavc60.31.102 h264_qsv
  Stream #1:1[0x2](und): Audio: aac (HE-AACv2) (mp4a / 0x6134706D), 48000 Hz, stereo, fltp, 144 kb/s (default)
      Metadata:
        handler_name    : SoundHandler
        vendor_id       : [0][0][0][0]
Stream mapping:
  Stream #0:0 (hevc) -> settb:default
  Stream #1:0 (h264) -> settb:default
  psnr:default -> Stream #0:0 (wrapped_avframe)
  Stream #0:1 -> #0:1 (aac (native) -> pcm_s16le (native))
Output #0, null, to 'pipe:':
  Metadata:
    COMPATIBLE_BRANDS: isomiso2avc1mp41
    MAJOR_BRAND     : isom
    MINOR_VERSION   : 512
    encoder         : Lavf61.7.100
  Stream #0:0: Video: wrapped_avframe, yuv420p10le(tv, bt709, progressive), 1920x1080 [SAR 1:1 DAR 16:9], q=2-31, 200 kb/s, 23.98 fps, 23.98 tbn
      Metadata:
        encoder         : Lavc61.19.100 wrapped_avframe
  Stream #0:1: Audio: pcm_s16le, 48000 Hz, stereo, s16, 1536 kb/s (default)
      Metadata:
        HANDLER_NAME    : SoundHandler
        VENDOR_ID       : [0][0][0][0]
        _STATISTICS_TAGS: BPS DURATION NUMBER_OF_FRAMES NUMBER_OF_BYTES
        BPS             : 193813
        DURATION        : 00:23:47.541000000
        NUMBER_OF_FRAMES: 66917
        NUMBER_OF_BYTES : 34584657
        _STATISTICS_WRITING_APP: mkvpropedit v66.0.0 ('Josie') 64-bit
        _STATISTICS_WRITING_DATE_UTC: 2025-06-15 14:27:45
        encoder         : Lavc61.19.100 pcm_s16le
frame=  190 fps=0.0 q=-0.0 size=N/A time=00:00:07.92 bitrate=N/A speed=15.3x    frame=  400 fps=391 q=-0.0 size=N/A time=00:00:16.68 bitrate=N/A speed=16.3x    frame=  644 fps=416 q=-0.0 size=N/A time=00:00:26.86 bitrate=N/A speed=17.3x    frame=  906 fps=440 q=-0.0 size=N/A time=00:00:37.78 bitrate=N/A speed=18.4x    frame= 1163 fps=453 q=-0.0 size=N/A time=00:00:48.50 bitrate=N/A speed=18.9x    frame= 1383 fps=447 q=-0.0 size=N/A time=00:00:57.68 bitrate=N/A speed=18.6x    frame= 1642 fps=456 q=-0.0 size=N/A time=00:01:08.48 bitrate=N/A speed=  19x    frame= 1884 fps=458 q=-0.0 size=N/A time=00:01:18.57 bitrate=N/A speed=19.1x    frame= 2100 fps=453 q=-0.0 size=N/A time=00:01:27.58 bitrate=N/A speed=18.9x    frame= 2308 fps=448 q=-0.0 size=N/A time=00:01:36.26 bitrate=N/A speed=18.7x    frame= 2516 fps=444 q=-0.0 size=N/A time=00:01:44.93 bitrate=N/A speed=18.5x    frame= 2734 fps=442 q=-0.0 size=N/A time=00:01:54.03 bitrate=N/A speed=18.4x    frame= 2983 fps=445 q=-0.0 size=N/A time=00:02:04.41 bitrate=N/A speed=18.6x    frame= 3214 fps=445 q=-0.0 size=N/A time=00:02:14.05 bitrate=N/A speed=18.6x    frame= 3394 fps=439 q=-0.0 size=N/A time=00:02:21.55 bitrate=N/A speed=18.3x    frame= 3589 fps=435 q=-0.0 size=N/A time=00:02:29.69 bitrate=N/A speed=18.2x    frame= 3810 fps=435 q=-0.0 size=N/A time=00:02:38.90 bitrate=N/A speed=18.1x    frame= 4044 fps=436 q=-0.0 size=N/A time=00:02:48.66 bitrate=N/A speed=18.2x    frame= 4224 fps=431 q=-0.0 size=N/A time=00:02:56.17 bitrate=N/A speed=  18x    frame= 4447 fps=431 q=-0.0 size=N/A time=00:03:05.47 bitrate=N/A speed=  18x    frame= 4619 fps=427 q=-0.0 size=N/A time=00:03:12.65 bitrate=N/A speed=17.8x    frame= 4773 fps=421 q=-0.0 size=N/A time=00:03:19.07 bitrate=N/A speed=17.6x    frame= 4998 fps=421 q=-0.0 size=N/A time=00:03:28.45 bitrate=N/A speed=17.6x    frame= 5198 fps=420 q=-0.0 size=N/A time=00:03:36.79 bitrate=N/A speed=17.5x    frame= 5417 fps=420 q=-0.0 size=N/A time=00:03:45.93 bitrate=N/A speed=17.5x    frame= 5647 fps=422 q=-0.0 size=N/A time=00:03:55.52 bitrate=N/A speed=17.6x    frame= 5896 fps=424 q=-0.0 size=N/A time=00:04:05.91 bitrate=N/A speed=17.7x    frame= 6142 fps=426 q=-0.0 size=N/A time=00:04:16.17 bitrate=N/A speed=17.7x    frame= 6386 fps=427 q=-0.0 size=N/A time=00:04:26.34 bitrate=N/A speed=17.8x    frame= 6615 fps=428 q=-0.0 size=N/A time=00:04:35.90 bitrate=N/A speed=17.8x    frame= 6870 fps=430 q=-0.0 size=N/A time=00:04:46.53 bitrate=N/A speed=17.9x    frame= 7094 fps=430 q=-0.0 size=N/A time=00:04:55.87 bitrate=N/A speed=17.9x    frame= 7337 fps=431 q=-0.0 size=N/A time=00:05:06.01 bitrate=N/A speed=  18x    frame= 7570 fps=432 q=-0.0 size=N/A time=00:05:15.73 bitrate=N/A speed=  18x    frame= 7798 fps=432 q=-0.0 size=N/A time=00:05:25.24 bitrate=N/A speed=  18x    frame= 8058 fps=434 q=-0.0 size=N/A time=00:05:36.08 bitrate=N/A speed=18.1x    frame= 8315 fps=436 q=-0.0 size=N/A time=00:05:46.80 bitrate=N/A speed=18.2x    frame= 8564 fps=437 q=-0.0 size=N/A time=00:05:57.19 bitrate=N/A speed=18.2x    frame= 8804 fps=437 q=-0.0 size=N/A time=00:06:07.20 bitrate=N/A speed=18.2x    frame= 8979 fps=435 q=-0.0 size=N/A time=00:06:14.49 bitrate=N/A speed=18.1x    frame= 9245 fps=437 q=-0.0 size=N/A time=00:06:25.59 bitrate=N/A speed=18.2x    frame= 9500 fps=438 q=-0.0 size=N/A time=00:06:36.22 bitrate=N/A speed=18.3x    frame= 9741 fps=439 q=-0.0 size=N/A time=00:06:46.28 bitrate=N/A speed=18.3x    frame= 9980 fps=440 q=-0.0 size=N/A time=00:06:56.24 bitrate=N/A speed=18.3x    frame=10233 fps=441 q=-0.0 size=N/A time=00:07:06.80 bitrate=N/A speed=18.4x    frame=10475 fps=442 q=-0.0 size=N/A time=00:07:16.89 bitrate=N/A speed=18.4x    frame=10719 fps=442 q=-0.0 size=N/A time=00:07:27.07 bitrate=N/A speed=18.4x    frame=10920 fps=441 q=-0.0 size=N/A time=00:07:35.45 bitrate=N/A speed=18.4x    frame=11147 fps=441 q=-0.0 size=N/A time=00:07:44.92 bitrate=N/A speed=18.4x    frame=11383 fps=441 q=-0.0 size=N/A time=00:07:54.76 bitrate=N/A speed=18.4x    frame=11626 fps=442 q=-0.0 size=N/A time=00:08:04.90 bitrate=N/A speed=18.4x    frame=11891 fps=443 q=-0.0 size=N/A time=00:08:15.95 bitrate=N/A speed=18.5x    frame=12135 fps=444 q=-0.0 size=N/A time=00:08:26.13 bitrate=N/A speed=18.5x    frame=12376 fps=444 q=-0.0 size=N/A time=00:08:36.18 bitrate=N/A speed=18.5x    frame=12642 fps=445 q=-0.0 size=N/A time=00:08:47.27 bitrate=N/A speed=18.6x    frame=12908 fps=447 q=-0.0 size=N/A time=00:08:58.37 bitrate=N/A speed=18.6x    frame=13171 fps=448 q=-0.0 size=N/A time=00:09:09.34 bitrate=N/A speed=18.7x    frame=13429 fps=449 q=-0.0 size=N/A time=00:09:20.10 bitrate=N/A speed=18.7x    frame=13683 fps=449 q=-0.0 size=N/A time=00:09:30.69 bitrate=N/A speed=18.7x    frame=13931 fps=450 q=-0.0 size=N/A time=00:09:41.03 bitrate=N/A speed=18.8x    frame=14175 fps=450 q=-0.0 size=N/A time=00:09:51.21 bitrate=N/A speed=18.8x    frame=14428 fps=451 q=-0.0 size=N/A time=00:10:01.76 bitrate=N/A speed=18.8x    frame=14687 fps=452 q=-0.0 size=N/A time=00:10:12.57 bitrate=N/A speed=18.8x    frame=14932 fps=452 q=-0.0 size=N/A time=00:10:22.78 bitrate=N/A speed=18.9x    frame=15159 fps=452 q=-0.0 size=N/A time=00:10:32.25 bitrate=N/A speed=18.9x    frame=15397 fps=452 q=-0.0 size=N/A time=00:10:42.18 bitrate=N/A speed=18.9x    frame=15620 fps=452 q=-0.0 size=N/A time=00:10:51.48 bitrate=N/A speed=18.8x    frame=15878 fps=452 q=-0.0 size=N/A time=00:11:02.24 bitrate=N/A speed=18.9x    frame=16027 fps=450 q=-0.0 size=N/A time=00:11:08.45 bitrate=N/A speed=18.8x    frame=16243 fps=450 q=-0.0 size=N/A time=00:11:17.46 bitrate=N/A speed=18.8x    frame=16450 fps=449 q=-0.0 size=N/A time=00:11:26.10 bitrate=N/A speed=18.7x    frame=16672 fps=449 q=-0.0 size=N/A time=00:11:35.36 bitrate=N/A speed=18.7x    frame=16919 fps=449 q=-0.0 size=N/A time=00:11:45.66 bitrate=N/A speed=18.7x    frame=17164 fps=450 q=-0.0 size=N/A time=00:11:55.88 bitrate=N/A speed=18.7x    frame=17421 fps=450 q=-0.0 size=N/A time=00:12:06.60 bitrate=N/A speed=18.8x    frame=17623 fps=449 q=-0.0 size=N/A time=00:12:15.02 bitrate=N/A speed=18.7x    frame=17818 fps=448 q=-0.0 size=N/A time=00:12:23.15 bitrate=N/A speed=18.7x    frame=18052 fps=449 q=-0.0 size=N/A time=00:12:32.91 bitrate=N/A speed=18.7x    frame=18259 fps=448 q=-0.0 size=N/A time=00:12:41.55 bitrate=N/A speed=18.7x    frame=18477 fps=448 q=-0.0 size=N/A time=00:12:50.64 bitrate=N/A speed=18.7x    frame=18732 fps=448 q=-0.0 size=N/A time=00:13:01.28 bitrate=N/A speed=18.7x    frame=18992 fps=449 q=-0.0 size=N/A time=00:13:12.12 bitrate=N/A speed=18.7x    frame=19227 fps=449 q=-0.0 size=N/A time=00:13:21.92 bitrate=N/A speed=18.7x    frame=19482 fps=450 q=-0.0 size=N/A time=00:13:32.56 bitrate=N/A speed=18.8x    frame=19737 fps=450 q=-0.0 size=N/A time=00:13:43.19 bitrate=N/A speed=18.8x    frame=19983 fps=450 q=-0.0 size=N/A time=00:13:53.45 bitrate=N/A speed=18.8x    frame=20240 fps=451 q=-0.0 size=N/A time=00:14:04.17 bitrate=N/A speed=18.8x    frame=20500 fps=451 q=-0.0 size=N/A time=00:14:15.02 bitrate=N/A speed=18.8x    frame=20751 fps=452 q=-0.0 size=N/A time=00:14:25.48 bitrate=N/A speed=18.8x    frame=21009 fps=453 q=-0.0 size=N/A time=00:14:36.25 bitrate=N/A speed=18.9x    frame=21253 fps=453 q=-0.0 size=N/A time=00:14:46.42 bitrate=N/A speed=18.9x    frame=21488 fps=453 q=-0.0 size=N/A time=00:14:56.22 bitrate=N/A speed=18.9x    frame=21745 fps=453 q=-0.0 size=N/A time=00:15:06.94 bitrate=N/A speed=18.9x    frame=21991 fps=453 q=-0.0 size=N/A time=00:15:17.20 bitrate=N/A speed=18.9x    frame=22234 fps=454 q=-0.0 size=N/A time=00:15:27.34 bitrate=N/A speed=18.9x    frame=22464 fps=454 q=-0.0 size=N/A time=00:15:36.93 bitrate=N/A speed=18.9x    frame=22699 fps=454 q=-0.0 size=N/A time=00:15:46.73 bitrate=N/A speed=18.9x    frame=22962 fps=454 q=-0.0 size=N/A time=00:15:57.70 bitrate=N/A speed=18.9x    frame=23218 fps=455 q=-0.0 size=N/A time=00:16:08.38 bitrate=N/A speed=  19x    frame=23455 fps=455 q=-0.0 size=N/A time=00:16:18.26 bitrate=N/A speed=  19x    frame=23710 fps=455 q=-0.0 size=N/A time=00:16:28.90 bitrate=N/A speed=  19x    frame=23930 fps=455 q=-0.0 size=N/A time=00:16:38.08 bitrate=N/A speed=  19x    frame=24175 fps=455 q=-0.0 size=N/A time=00:16:48.29 bitrate=N/A speed=  19x    frame=24422 fps=455 q=-0.0 size=N/A time=00:16:58.60 bitrate=N/A speed=  19x    frame=24650 fps=455 q=-0.0 size=N/A time=00:17:08.11 bitrate=N/A speed=  19x    frame=24893 fps=455 q=-0.0 size=N/A time=00:17:18.24 bitrate=N/A speed=  19x    frame=25136 fps=455 q=-0.0 size=N/A time=00:17:28.38 bitrate=N/A speed=  19x    frame=25387 fps=456 q=-0.0 size=N/A time=00:17:38.84 bitrate=N/A speed=  19x    frame=25623 fps=456 q=-0.0 size=N/A time=00:17:48.69 bitrate=N/A speed=  19x    frame=25859 fps=456 q=-0.0 size=N/A time=00:17:58.53 bitrate=N/A speed=  19x    frame=26104 fps=456 q=-0.0 size=N/A time=00:18:08.75 bitrate=N/A speed=  19x    frame=26348 fps=456 q=-0.0 size=N/A time=00:18:18.93 bitrate=N/A speed=  19x    frame=26579 fps=456 q=-0.0 size=N/A time=00:18:28.56 bitrate=N/A speed=  19x    frame=26798 fps=456 q=-0.0 size=N/A time=00:18:37.69 bitrate=N/A speed=  19x    frame=27021 fps=455 q=-0.0 size=N/A time=00:18:47.00 bitrate=N/A speed=  19x    frame=27249 fps=455 q=-0.0 size=N/A time=00:18:56.51 bitrate=N/A speed=  19x    frame=27500 fps=456 q=-0.0 size=N/A time=00:19:06.97 bitrate=N/A speed=  19x    frame=27732 fps=456 q=-0.0 size=N/A time=00:19:16.65 bitrate=N/A speed=  19x    frame=27955 fps=455 q=-0.0 size=N/A time=00:19:25.95 bitrate=N/A speed=  19x    frame=28223 fps=456 q=-0.0 size=N/A time=00:19:37.13 bitrate=N/A speed=  19x    frame=28422 fps=455 q=-0.0 size=N/A time=00:19:45.43 bitrate=N/A speed=  19x    frame=28665 fps=456 q=-0.0 size=N/A time=00:19:55.56 bitrate=N/A speed=  19x    frame=28937 fps=456 q=-0.0 size=N/A time=00:20:06.91 bitrate=N/A speed=  19x    frame=29192 fps=456 q=-0.0 size=N/A time=00:20:17.54 bitrate=N/A speed=  19x    frame=29427 fps=456 q=-0.0 size=N/A time=00:20:27.35 bitrate=N/A speed=  19x    frame=29659 fps=456 q=-0.0 size=N/A time=00:20:37.02 bitrate=N/A speed=  19x    frame=29922 fps=457 q=-0.0 size=N/A time=00:20:47.99 bitrate=N/A speed=19.1x    frame=30136 fps=456 q=-0.0 size=N/A time=00:20:56.92 bitrate=N/A speed=  19x    frame=30346 fps=456 q=-0.0 size=N/A time=00:21:05.68 bitrate=N/A speed=  19x    frame=30603 fps=456 q=-0.0 size=N/A time=00:21:16.40 bitrate=N/A speed=  19x    frame=30842 fps=456 q=-0.0 size=N/A time=00:21:26.36 bitrate=N/A speed=  19x    frame=31075 fps=456 q=-0.0 size=N/A time=00:21:36.08 bitrate=N/A speed=  19x    frame=31314 fps=456 q=-0.0 size=N/A time=00:21:46.05 bitrate=N/A speed=  19x    frame=31544 fps=456 q=-0.0 size=N/A time=00:21:55.64 bitrate=N/A speed=  19x    frame=31786 fps=456 q=-0.0 size=N/A time=00:22:05.74 bitrate=N/A speed=  19x    frame=31987 fps=456 q=-0.0 size=N/A time=00:22:14.12 bitrate=N/A speed=  19x    frame=32188 fps=455 q=-0.0 size=N/A time=00:22:22.50 bitrate=N/A speed=  19x    frame=32391 fps=455 q=-0.0 size=N/A time=00:22:30.97 bitrate=N/A speed=  19x    frame=32598 fps=455 q=-0.0 size=N/A time=00:22:39.60 bitrate=N/A speed=  19x    frame=32819 fps=454 q=-0.0 size=N/A time=00:22:48.82 bitrate=N/A speed=  19x    frame=33035 fps=454 q=-0.0 size=N/A time=00:22:57.83 bitrate=N/A speed=18.9x    frame=33252 fps=454 q=-0.0 size=N/A time=00:23:06.88 bitrate=N/A speed=18.9x    frame=33478 fps=454 q=-0.0 size=N/A time=00:23:16.31 bitrate=N/A speed=18.9x    frame=33674 fps=453 q=-0.0 size=N/A time=00:23:24.48 bitrate=N/A speed=18.9x    frame=33854 fps=453 q=-0.0 size=N/A time=00:23:31.99 bitrate=N/A speed=18.9x    frame=34057 fps=452 q=-0.0 size=N/A time=00:23:40.46 bitrate=N/A speed=18.9x    [Parsed_psnr_10 @ 0000012b3987b800] PSNR y:48.026289 u:50.685478 v:50.251423 average:48.697170 min:41.010299 max:inf
[out#0/null @ 0000012b375cca80] video:14696KiB audio:267668KiB subtitle:0KiB other streams:0KiB global headers:0KiB muxing overhead: unknown
frame=34201 fps=452 q=-0.0 Lsize=N/A time=00:23:46.46 bitrate=N/A speed=18.8x    
